<svg xmlns="http://www.w3.org/2000/svg" version="1.1" xmlns:xlink="http://www.w3.org/1999/xlink" width="350" height="180" viewBox="0 0 350 180">
    <svg xml:space="preserve" data-version="2" data-id="lg_TThTnSqqwxe9vyBslu" viewBox="0 0 320 200" x="0" y="0">
        <rect width="100%" height="100%" fill="transparent"></rect>
        <path fill="#97afaf" stroke="#97afaf" stroke-width="1.97" d="M78.448 130.023h182.904"></path>
        <path fill="#97afaf" d="M144.472 107.252h3.768a5.298 5.298 0 0 0 5.297-5.296l-.007-8.335a3.815 3.815 0 0 1 3.816-3.816h3.687l21.489.004c10.012-.058 18.112-8.19 18.112-18.215 0-10.111-8.16-18.165-18.217-18.215h-55.082c-7.332 0-13.274 5.944-13.274 13.277v27.32c0 7.334 5.942 13.277 13.274 13.277zm-34.229-40.598c0-9.44 7.652-17.093 17.092-17.093l76.103.001v61.505h-76.103c-9.44 0-17.092-7.652-17.092-17.093zm57.512 4.827c0 8.094 6.562 14.657 14.657 14.657s14.659-6.563 14.659-14.657c0-8.095-6.563-14.659-14.659-14.659-8.095 0-14.657 6.564-14.657 14.659m-50.051 5.625a9.243 9.243 0 0 0 9.244 9.244 9.243 9.243 0 0 0 9.244-9.244 9.243 9.243 0 0 0-9.244-9.244 9.243 9.243 0 0 0-9.244 9.244m9.631-22.245h19.098l35.982-.001c9.247.046 16.74 7.445 16.74 16.734 0 9.209-7.438 16.683-16.637 16.737l-21.484-.006h-3.687a5.297 5.297 0 0 0-5.298 5.296l.009 8.335a3.815 3.815 0 0 1-3.817 3.814h-20.906c-6.513 0-11.793-5.28-11.793-11.795v-27.32c.001-6.514 5.28-11.794 11.793-11.794m43.876 16.62c0-6.188 5.016-11.203 11.201-11.203 6.188 0 11.202 5.016 11.202 11.203 0 6.186-5.015 11.199-11.202 11.199a11.2 11.2 0 0 1-11.201-11.2m-49.687 5.625a5.424 5.424 0 1 1 10.848 0 5.424 5.424 0 0 1-10.848 0m61.903-74.862h5.619c3.7 10.442 6.434 24.609 7.519 40.513 3.309 1.31 3.607 3.835 3.607 3.835v1.435H141.74v-1.324s.113-1.503 3.05-1.724c.536-.042 2.381-.18 5.071-.374l1.806-31.314h32.417zm31.224 53.1h1.58l2.715 2.384 9.737.007v42.894h-9.737l-2.715 2.385h-1.58l-3.018 2.647h-6.706V52.696h6.706z"></path>
        <path fill="#29231d" d="m5.59 147.436-1.96-.22.04-.56h4.88l8.85 18.76 8.69-18.76h4.89q0 .07.03.26.04.18 0 .3l-1.96.22q-.37.03-.44.48v23.94l2.74.15q0 .03-.04.55l-7.44.04.04-.52 1.92-.26q.37-.04.45-.44v-23.39l-8.44 18.24-.74 1.48h-.85l-9.36-19.75v23.82l4.22.23q0 .03-.04.55l-7.44.04.04-.52 1.92-.26q.37-.04.45-.48v-23.42q-.08-.45-.45-.48"></path>
        <rect width="27.72" height="25.94" x="-13.86" y="-12.97" fill="none" rx="0" ry="0" transform="translate(17.99 160.13)"></rect>
        <path fill="#29231d" d="m40.63 172.556-7.43.04.03-.52 1.93-.26q.26-.04.44-.48l7.99-24.68h2.44l8.51 25.2 2.56.15q0 .03-.04.55l-7.4.04q0-.34.04-.52l1.92-.26q.3-.04.3-.44l-2.04-6.03H38.34l-1.96 6.43 4.29.23q0 .03-.04.55m8.99-7.95-5.77-17.25-5.29 17.25z"></path>
        <rect width="23.9" height="25.94" x="-11.95" y="-12.97" fill="none" rx="0" ry="0" transform="translate(45.65 160.13)"></rect>
        <path fill="#29231d" d="m61.13 147.436-1.96-.22.04-.56h8.99q3.81 0 5.88 1.67 2.07 1.66 2.07 4.95 0 2.15-1.64 4.48-1.65 2.33-3.09 3l6.84 11.13 1.81.12q0 .03-.03.55l-4.04.04-7.03-11.4h-4.92v10.66l2.59.15q0 .03-.03.55l-7.44.04.04-.52 1.92-.26q.26-.04.41-.33v-23.68q-.11-.34-.41-.37m6.88-.22h-3.96v13.43h6.33q1.92-2.19 2.59-3.87.67-1.68.67-3.27 0-3.11-1.45-4.7-1.44-1.59-4.18-1.59"></path>
        <rect width="20.9" height="25.94" x="-10.45" y="-12.97" fill="none" rx="0" ry="0" transform="translate(70.12 160.13)"></rect>
        <path fill="#29231d" d="M93.88 147.176q-4.19 0-6.63 3.48-2.44 3.47-2.44 10.06 0 7.99 3.66 10.32 1.11.71 2.06.91.94.2 2.09.2 3.66 0 7.66-.88l.11.51q-.63.23-3.35.58t-4.42.35q-1.7 0-2.96-.24t-2.67-1.02q-1.4-.78-2.38-2.05-.98-1.28-1.65-3.5-.67-2.22-.67-5.18 0-6.55 3-10.21 3.15-3.85 8.59-3.85 1.66 0 3.6.31 1.95.32 2.76.62l.44 5.32-.7.26-.48-3.96q-3-2.03-5.62-2.03"></path>
        <rect width="18.39" height="26.05" x="-9.2" y="-13.03" fill="none" rx="0" ry="0" transform="translate(91.98 160.18)"></rect>
        <path fill="#29231d" d="m110.9 172.556-7.44.04.04-.52 1.92-.26q.37-.04.44-.48h.04v-23.38h-.04q-.07-.49-.44-.52l-1.92-.19-.04-.55 7.44-.04q0 .04.03.56l-2.51.22v24.42l2.51.15q0 .03-.03.55"></path>
        <rect width="7.47" height="25.94" x="-3.73" y="-12.97" fill="none" rx="0" ry="0" transform="translate(107.7 160.13)"></rect>
        <path fill="#29231d" d="m116.41 147.436-1.96-.22.03-.56h5.07l14.4 24.86-.19-23.56q-.15-.37-.41-.41l-3.4-.3q-.04-.22-.04-.55l7.03-.04q0 .04.04.56l-2.37.25v25.09h-2.7l-14.39-24.86.18 24.08 4.22.23q0 .03-.04.55l-7.43.04.03-.52 1.93-.26q.37-.04.44-.48v-23.42q-.07-.45-.44-.48"></path>
        <rect width="22.53" height="25.94" x="-11.27" y="-12.97" fill="none" rx="0" ry="0" transform="translate(126.22 160.13)"></rect>
        <path fill="#29231d" d="M162.77 147.176q-4.18 0-6.62 3.48-2.45 3.47-2.45 10.06 0 7.99 3.67 10.32 1.11.71 2.05.91.94.2 2.09.2 3.66 0 7.66-.88l.11.51q-.63.23-3.35.58t-4.42.35q-1.7 0-2.96-.24t-2.66-1.02q-1.41-.78-2.39-2.05-.98-1.28-1.65-3.5-.66-2.22-.66-5.18 0-6.55 3-10.21 3.14-3.85 8.58-3.85 1.66 0 3.61.31 1.94.32 2.75.62l.45 5.32-.71.26-.48-3.96q-2.99-2.03-5.62-2.03"></path>
        <rect width="18.39" height="26.05" x="-9.2" y="-13.03" fill="none" rx="0" ry="0" transform="translate(160.88 160.18)"></rect>
        <path fill="#29231d" d="m186.93 146.696 7.03-.04q0 .04.04.56l-2.33.25v24.39l2.7.15q0 .03-.04.55l-7.4.04q0-.34.04-.52l1.92-.26q.37-.04.45-.48v-11.25h-12.62v11.77l2.74.15q0 .03-.04.55l-7.44.04.04-.52 1.92-.26q.37-.04.45-.44v-23.46q-.08-.45-.45-.48l-1.92-.19-.04-.55 7.44-.04q0 .04.04.56l-2.74.25v11.88h12.62v-11.39q-.08-.49-.45-.52l-1.92-.19q-.04-.22-.04-.55"></path>
        <rect width="22.39" height="25.94" x="-11.2" y="-12.97" fill="none" rx="0" ry="0" transform="translate(183.68 160.13)"></rect>
        <path fill="#29231d" d="M197.33 159.676q0-6.1 3.12-9.73 3.13-3.62 7.79-3.62 10.92 0 10.92 13.35 0 6.15-3.11 9.68-3.11 3.53-7.81 3.53-10.91 0-10.91-13.21m2.51-.07q0 12.54 8.4 12.54 3.63 0 6.01-3.33 2.39-3.33 2.39-9.21 0-12.54-8.4-12.54-3.59 0-5.99 3.36-2.41 3.37-2.41 9.18"></path>
        <rect width="21.83" height="26.56" x="-10.91" y="-13.28" fill="none" rx="0" ry="0" transform="translate(208.75 160.1)"></rect>
        <path fill="#29231d" d="m222.49 146.696 7.43-.04q0 .04.04.56l-2.55.22v24.38h10.21l.74-5.92.7.19-.55 6.47h-8.59l-7.43.04.03-.52 1.93-.26q.37-.04.44-.48v-23.42q-.07-.45-.44-.48l-1.93-.19z"></path>
        <rect width="16.57" height="25.94" x="-8.29" y="-12.97" fill="none" rx="0" ry="0" transform="translate(231.28 160.13)"></rect>
        <path fill="#29231d" d="m243.43 147.436-1.96-.22.04-.56h15.83l-.04.11.49 5.22-.74.29-.6-4.88h-10.06v11.95h8.84q.19.04.34-.09.14-.13.14-.35l.15-2.56.59-.07v6.33q-.03 0-.55.03l-.15-2.55h-9.36v11.73h11.06l.71-5.92.7.19-.56 6.47h-9.39l-7.44.04.04-.52 1.92-.26q.37-.04.44-.48v-23.42q-.07-.45-.44-.48"></path>
        <rect width="17.39" height="25.94" x="-8.7" y="-12.97" fill="none" rx="0" ry="0" transform="translate(250.66 160.13)"></rect>
        <path fill="#29231d" d="m260.34 146.696 7.44-.04q0 .04.03.56l-2.88.25 6.14 24.13 6.88-24.94h.56l-.12.3.15-.3 6.51 25.01 6.52-23.71q0-.37-.34-.41l-3.47-.3-.04-.55 7.25-.04q0 .04.04.56l-2.41.22-7.32 25.12h-2.26l-5.59-22.09-6.1 22.09h-2.3l-6.36-24.83q-.11-.26-.37-.29l-1.92-.19z"></path>
        <rect width="34.67" height="25.9" x="-17.34" y="-12.95" fill="none" rx="0" ry="0" transform="translate(278.18 160.1)"></rect>
        <path fill="#29231d" d="m309.36 146.696 7.22-.04q0 .04.04.56l-3.15.29-8.99 10.47 10.95 13.91 1.74.12q0 .03-.04.55l-3.99.04-10.7-13.51-.03-.03v12.8l2.51.15q0 .03-.03.55l-7.4.04q0-.34.03-.52l1.93-.26q.37-.04.44-.48v-23.42q-.15-.45-.44-.48l-1.93-.19q-.03-.22-.03-.55l7.4-.04q0 .04.03.56l-2.51.22v11.58l.07-.04 9.07-10.84q.29-.59-.23-.7l-1.92-.19q-.04-.22-.04-.55m-6.95 12.36v-.04z"></path>
        <rect width="19.68" height="25.94" x="-9.84" y="-12.97" fill="none" rx="0" ry="0" transform="translate(307.83 160.13)"></rect>
        <path fill="#29231d" d="m325.9 172.556-7.43.04.03-.52 1.93-.26q.26-.04.44-.48l7.99-24.68h2.44l8.51 25.2 2.56.15q0 .03-.04.55l-7.4.04q0-.34.04-.52l1.92-.26q.3-.04.3-.44l-2.04-6.03h-11.54l-1.96 6.43 4.29.23q0 .03-.04.55m8.99-7.95-5.77-17.25-5.29 17.25z"></path>
    </svg>
</svg>