<svg xmlns="http://www.w3.org/2000/svg" version="1.1" xmlns:xlink="http://www.w3.org/1999/xlink" width="1500" height="1500" viewBox="0 0 1500 1500"><rect width="1500" height="1500" x="0" y="0" id="background" stroke="transparent" fill="#000000"></rect><svg xml:space="preserve" width="1000" height="1000" data-version="2" data-id="lg_TThTnSqqwxe9vyBslu" viewBox="0 0 347 210" x="250" y="250"><rect width="100%" height="100%" fill="transparent"></rect><path fill="#555555" stroke="#555555" stroke-width="1.97" d="M78.448 130.023h182.904"></path><path fill="#555555" d="M144.472 107.252h3.768a5.298 5.298 0 0 0 5.297-5.296l-.007-8.335a3.815 3.815 0 0 1 3.816-3.816h3.687l21.489.004c10.012-.058 18.112-8.19 18.112-18.215 0-10.111-8.16-18.165-18.217-18.215h-55.082c-7.332 0-13.274 5.944-13.274 13.277v27.32c0 7.334 5.942 13.277 13.274 13.277zm-34.229-40.598c0-9.44 7.652-17.093 17.092-17.093l76.103.001v61.505h-76.103c-9.44 0-17.092-7.652-17.092-17.093zm57.512 4.827c0 8.094 6.562 14.657 14.657 14.657s14.659-6.563 14.659-14.657c0-8.095-6.563-14.659-14.659-14.659-8.095 0-14.657 6.564-14.657 14.659m-50.051 5.625a9.243 9.243 0 0 0 9.244 9.244 9.243 9.243 0 0 0 9.244-9.244 9.243 9.243 0 0 0-9.244-9.244 9.243 9.243 0 0 0-9.244 9.244m9.631-22.245h19.098l35.982-.001c9.247.046 16.74 7.445 16.74 16.734 0 9.209-7.438 16.683-16.637 16.737l-21.484-.006h-3.687a5.297 5.297 0 0 0-5.298 5.296l.009 8.335a3.815 3.815 0 0 1-3.817 3.814h-20.906c-6.513 0-11.793-5.28-11.793-11.795v-27.32c.001-6.514 5.28-11.794 11.793-11.794m43.876 16.62c0-6.188 5.016-11.203 11.201-11.203 6.188 0 11.202 5.016 11.202 11.203 0 6.186-5.015 11.199-11.202 11.199a11.2 11.2 0 0 1-11.201-11.2m-49.687 5.625a5.424 5.424 0 1 1 10.848 0 5.424 5.424 0 0 1-10.848 0m61.903-74.862h5.619c3.7 10.442 6.434 24.609 7.519 40.513 3.309 1.31 3.607 3.835 3.607 3.835v1.435H141.74v-1.324s.113-1.503 3.05-1.724c.536-.042 2.381-.18 5.071-.374l1.806-31.314h32.417zm31.224 53.1h1.58l2.715 2.384 9.737.007v42.894h-9.737l-2.715 2.385h-1.58l-3.018 2.647h-6.706V52.696h6.706z"></path><path fill="#dbdbdb" d="m5.59 147.436-1.96-.22.04-.56h4.88l8.85 18.76 8.69-18.76h4.89q0 .07.03.26.04.18 0 .3l-1.96.22q-.37.03-.44.48v23.94l2.74.15q0 .03-.04.55l-7.44.04.04-.52 1.92-.26q.37-.04.45-.44v-23.39l-8.44 18.24-.74 1.48h-.85l-9.36-19.75v23.82l4.22.23q0 .03-.04.55l-7.44.04.04-.52 1.92-.26q.37-.04.45-.48v-23.42q-.08-.45-.45-.48"></path><rect width="27.72" height="25.94" x="-13.86" y="-12.97" fill="none" rx="0" ry="0" transform="translate(17.99 160.13)"></rect><path fill="#dbdbdb" d="m40.63 172.556-7.43.04.03-.52 1.93-.26q.26-.04.44-.48l7.99-24.68h2.44l8.51 25.2 2.56.15q0 .03-.04.55l-7.4.04q0-.34.04-.52l1.92-.26q.3-.04.3-.44l-2.04-6.03H38.34l-1.96 6.43 4.29.23q0 .03-.04.55m8.99-7.95-5.77-17.25-5.29 17.25z"></path><rect width="23.9" height="25.94" x="-11.95" y="-12.97" fill="none" rx="0" ry="0" transform="translate(45.65 160.13)"></rect><path fill="#dbdbdb" d="m61.13 147.436-1.96-.22.04-.56h8.99q3.81 0 5.88 1.67 2.07 1.66 2.07 4.95 0 2.15-1.64 4.48-1.65 2.33-3.09 3l6.84 11.13 1.81.12q0 .03-.03.55l-4.04.04-7.03-11.4h-4.92v10.66l2.59.15q0 .03-.03.55l-7.44.04.04-.52 1.92-.26q.26-.04.41-.33v-23.68q-.11-.34-.41-.37m6.88-.22h-3.96v13.43h6.33q1.92-2.19 2.59-3.87.67-1.68.67-3.27 0-3.11-1.45-4.7-1.44-1.59-4.18-1.59"></path><rect width="20.9" height="25.94" x="-10.45" y="-12.97" fill="none" rx="0" ry="0" transform="translate(70.12 160.13)"></rect><path fill="#dbdbdb" d="M93.88 147.176q-4.19 0-6.63 3.48-2.44 3.47-2.44 10.06 0 7.99 3.66 10.32 1.11.71 2.06.91.94.2 2.09.2 3.66 0 7.66-.88l.11.51q-.63.23-3.35.58t-4.42.35q-1.7 0-2.96-.24t-2.67-1.02q-1.4-.78-2.38-2.05-.98-1.28-1.65-3.5-.67-2.22-.67-5.18 0-6.55 3-10.21 3.15-3.85 8.59-3.85 1.66 0 3.6.31 1.95.32 2.76.62l.44 5.32-.7.26-.48-3.96q-3-2.03-5.62-2.03"></path><rect width="18.39" height="26.05" x="-9.2" y="-13.03" fill="none" rx="0" ry="0" transform="translate(91.98 160.18)"></rect><path fill="#dbdbdb" d="m110.9 172.556-7.44.04.04-.52 1.92-.26q.37-.04.44-.48h.04v-23.38h-.04q-.07-.49-.44-.52l-1.92-.19-.04-.55 7.44-.04q0 .04.03.56l-2.51.22v24.42l2.51.15q0 .03-.03.55"></path><rect width="7.47" height="25.94" x="-3.73" y="-12.97" fill="none" rx="0" ry="0" transform="translate(107.7 160.13)"></rect><path fill="#dbdbdb" d="m116.41 147.436-1.96-.22.03-.56h5.07l14.4 24.86-.19-23.56q-.15-.37-.41-.41l-3.4-.3q-.04-.22-.04-.55l7.03-.04q0 .04.04.56l-2.37.25v25.09h-2.7l-14.39-24.86.18 24.08 4.22.23q0 .03-.04.55l-7.43.04.03-.52 1.93-.26q.37-.04.44-.48v-23.42q-.07-.45-.44-.48"></path><rect width="22.53" height="25.94" x="-11.27" y="-12.97" fill="none" rx="0" ry="0" transform="translate(126.22 160.13)"></rect><path fill="#dbdbdb" d="M162.77 147.176q-4.18 0-6.62 3.48-2.45 3.47-2.45 10.06 0 7.99 3.67 10.32 1.11.71 2.05.91.94.2 2.09.2 3.66 0 7.66-.88l.11.51q-.63.23-3.35.58t-4.42.35q-1.7 0-2.96-.24t-2.66-1.02q-1.41-.78-2.39-2.05-.98-1.28-1.65-3.5-.66-2.22-.66-5.18 0-6.55 3-10.21 3.14-3.85 8.58-3.85 1.66 0 3.61.31 1.94.32 2.75.62l.45 5.32-.71.26-.48-3.96q-2.99-2.03-5.62-2.03"></path><rect width="18.39" height="26.05" x="-9.2" y="-13.03" fill="none" rx="0" ry="0" transform="translate(160.88 160.18)"></rect><path fill="#dbdbdb" d="m186.93 146.696 7.03-.04q0 .04.04.56l-2.33.25v24.39l2.7.15q0 .03-.04.55l-7.4.04q0-.34.04-.52l1.92-.26q.37-.04.45-.48v-11.25h-12.62v11.77l2.74.15q0 .03-.04.55l-7.44.04.04-.52 1.92-.26q.37-.04.45-.44v-23.46q-.08-.45-.45-.48l-1.92-.19-.04-.55 7.44-.04q0 .04.04.56l-2.74.25v11.88h12.62v-11.39q-.08-.49-.45-.52l-1.92-.19q-.04-.22-.04-.55"></path><rect width="22.39" height="25.94" x="-11.2" y="-12.97" fill="none" rx="0" ry="0" transform="translate(183.68 160.13)"></rect><path fill="#dbdbdb" d="M197.33 159.676q0-6.1 3.12-9.73 3.13-3.62 7.79-3.62 10.92 0 10.92 13.35 0 6.15-3.11 9.68-3.11 3.53-7.81 3.53-10.91 0-10.91-13.21m2.51-.07q0 12.54 8.4 12.54 3.63 0 6.01-3.33 2.39-3.33 2.39-9.21 0-12.54-8.4-12.54-3.59 0-5.99 3.36-2.41 3.37-2.41 9.18"></path><rect width="21.83" height="26.56" x="-10.91" y="-13.28" fill="none" rx="0" ry="0" transform="translate(208.75 160.1)"></rect><path fill="#dbdbdb" d="m222.49 146.696 7.43-.04q0 .04.04.56l-2.55.22v24.38h10.21l.74-5.92.7.19-.55 6.47h-8.59l-7.43.04.03-.52 1.93-.26q.37-.04.44-.48v-23.42q-.07-.45-.44-.48l-1.93-.19z"></path><rect width="16.57" height="25.94" x="-8.29" y="-12.97" fill="none" rx="0" ry="0" transform="translate(231.28 160.13)"></rect><path fill="#dbdbdb" d="m243.43 147.436-1.96-.22.04-.56h15.83l-.04.11.49 5.22-.74.29-.6-4.88h-10.06v11.95h8.84q.19.04.34-.09.14-.13.14-.35l.15-2.56.59-.07v6.33q-.03 0-.55.03l-.15-2.55h-9.36v11.73h11.06l.71-5.92.7.19-.56 6.47h-9.39l-7.44.04.04-.52 1.92-.26q.37-.04.44-.48v-23.42q-.07-.45-.44-.48"></path><rect width="17.39" height="25.94" x="-8.7" y="-12.97" fill="none" rx="0" ry="0" transform="translate(250.66 160.13)"></rect><path fill="#dbdbdb" d="m260.34 146.696 7.44-.04q0 .04.03.56l-2.88.25 6.14 24.13 6.88-24.94h.56l-.12.3.15-.3 6.51 25.01 6.52-23.71q0-.37-.34-.41l-3.47-.3-.04-.55 7.25-.04q0 .04.04.56l-2.41.22-7.32 25.12h-2.26l-5.59-22.09-6.1 22.09h-2.3l-6.36-24.83q-.11-.26-.37-.29l-1.92-.19z"></path><rect width="34.67" height="25.9" x="-17.34" y="-12.95" fill="none" rx="0" ry="0" transform="translate(278.18 160.1)"></rect><path fill="#dbdbdb" d="m309.36 146.696 7.22-.04q0 .04.04.56l-3.15.29-8.99 10.47 10.95 13.91 1.74.12q0 .03-.04.55l-3.99.04-10.7-13.51-.03-.03v12.8l2.51.15q0 .03-.03.55l-7.4.04q0-.34.03-.52l1.93-.26q.37-.04.44-.48v-23.42q-.15-.45-.44-.48l-1.93-.19q-.03-.22-.03-.55l7.4-.04q0 .04.03.56l-2.51.22v11.58l.07-.04 9.07-10.84q.29-.59-.23-.7l-1.92-.19q-.04-.22-.04-.55m-6.95 12.36v-.04z"></path><rect width="19.68" height="25.94" x="-9.84" y="-12.97" fill="none" rx="0" ry="0" transform="translate(307.83 160.13)"></rect><path fill="#dbdbdb" d="m325.9 172.556-7.43.04.03-.52 1.93-.26q.26-.04.44-.48l7.99-24.68h2.44l8.51 25.2 2.56.15q0 .03-.04.55l-7.4.04q0-.34.04-.52l1.92-.26q.3-.04.3-.44l-2.04-6.03h-11.54l-1.96 6.43 4.29.23q0 .03-.04.55m8.99-7.95-5.77-17.25-5.29 17.25z"></path><rect width="23.9" height="25.94" x="-11.95" y="-12.97" fill="none" rx="0" ry="0" transform="translate(330.92 160.13)"></rect><path fill="#555555" d="M120.17 202.006h-1.29v-13.3h2.76q2.33 0 3.38.74 1.22.85 1.22 2.92 0 3.46-2.66 4.22-.86.25-1.94.25h-1.47zm1.37-12.26h-1.37v6.04h1.37q1.71 0 2.56-.75.84-.75.84-2.45 0-1.7-.84-2.27-.85-.57-2.56-.57"></path><rect width="7.36" height="13.3" x="-3.68" y="-6.65" fill="none" rx="0" ry="0" transform="translate(123.06 195.86)"></rect><path fill="#555555" d="M130.04 187.756v5.83q1.5-1.08 2.88-1.14 1.18 0 1.81.28.63.29 1.02.81.4.52.4 1.47v7h-1.23v-6.67q0-.71-.31-1.09-.6-.7-1.86-.7-1.23.06-2.71.8v7.66h-1.24v-14.16z"></path><rect width="7.35" height="14.25" x="-3.67" y="-7.13" fill="none" rx="0" ry="0" transform="translate(132.97 195.38)"></rect><path fill="#555555" d="M138.21 199.566q-.35-.91-.35-2.12 0-2.34 1.31-3.68 1.32-1.34 3.29-1.34 3.1 0 4.07 2.51.36.91.36 2.13 0 2.33-1.31 3.67-1.31 1.34-3.29 1.34-3.1 0-4.08-2.51m.89-2.26q0 1.75.9 2.71t2.33.96q1.42 0 2.37-1.02.95-1.01.95-2.76 0-1.75-.89-2.71t-2.33-.96q-1.43 0-2.38 1.02t-.95 2.76"></path><rect width="9.03" height="9.65" x="-4.51" y="-4.83" fill="none" rx="0" ry="0" transform="translate(142.88 197.75)"></rect><path fill="#555555" d="m153.1 200.636.23 1.02q-.34.35-1.24.35-1.25 0-1.69-.65-.74-.7-.74-1.9v-5.85h-1.06l.17-1.1h.89v-1.88l1.24-.12v2h2.2v1.1h-2.2v6.15q0 1.11 1.14 1.11.49 0 1.06-.23"></path><rect width="4.73" height="11.5" x="-2.37" y="-5.75" fill="none" rx="0" ry="0" transform="translate(151.47 196.76)"></rect><path fill="#555555" d="M155.44 199.566q-.34-.91-.34-2.12 0-2.34 1.31-3.68 1.31-1.34 3.28-1.34 3.1 0 4.07 2.51.36.91.36 2.13 0 2.33-1.31 3.67-1.31 1.34-3.29 1.34-3.09 0-4.08-2.51m.89-2.26q0 1.75.9 2.71.91.96 2.33.96 1.43 0 2.38-1.02.95-1.01.95-2.76 0-1.75-.9-2.71-.89-.96-2.32-.96-1.44 0-2.39 1.02-.95 1.02-.95 2.76"></path><rect width="9.02" height="9.65" x="-4.51" y="-4.83" fill="none" rx="0" ry="0" transform="translate(160.11 197.75)"></rect><path fill="#555555" d="M167.77 198.336q-1.41-.7-1.41-2.64 0-1.6 1.11-2.43 1.1-.84 2.81-.84.45 0 1.12.1l3.57-.1-.04.72h-2.07q1.05.78 1.05 2.35t-1.05 2.41q-1.04.85-2.7.85-1.06 0-1.76-.19-.36.34-.36.8 0 .64.71.93.71.28 1.68.41 2.15.29 3.1.8 1.36.76 1.36 2.34 0 1.58-1.5 2.34-1.14.57-2.75.57-1.62 0-2.49-.25-2.3-.67-2.3-2.47 0-1.81 2.03-3.06-.79-.59-.79-1.37 0-.78.68-1.27m5.89 5.49q0-1.23-1.63-1.71-.46-.13-1.64-.32t-1.84-.46q-1.46 1.22-1.46 2.36 0 .49.15.81.15.33.53.57.84.57 2.55.57 2.24 0 3.04-.95.3-.36.3-.87m-1.05-8.38q0-2.01-2.39-2.01-1.14 0-1.88.52t-.74 1.6q0 1.07.53 1.63.53.56 1.8.56 1.26 0 1.97-.61t.71-1.69"></path><rect width="9.12" height="14.33" x="-4.56" y="-7.17" fill="none" rx="0" ry="0" transform="translate(170.91 200.1)"></rect><path fill="#555555" d="m182.51 192.696-.49 1.14q-.3-.17-.65-.17-.34 0-.38.01-.72 0-1.45.53-.73.52-1.24 1.17v6.63h-1.24v-9.5l1.24-.1v2.13q.7-.89 1.19-1.25.91-.69 1.75-.73.11-.02.42-.02.3 0 .85.16"></path><rect width="5.45" height="9.6" x="-2.73" y="-4.8" fill="none" rx="0" ry="0" transform="translate(180.28 197.7)"></rect><path fill="#555555" d="m183.82 194.436-.34-.91q2.07-1.02 3.63-1.08 1.24 0 1.91.31.68.32 1.09.88.42.56.42 1.56v6.81h-1.23v-.73q-2.61.8-3.35.8h-.05q-1.71 0-2.34-1.04-.23-.38-.26-.74t-.03-.61q0-.69.54-1.23.53-.54 1.27-.73 1.25-.32 4.22-.57v-1.54q0-2.07-2.17-2.07-1.52 0-3.31.89m.61 5.4q0 1.37 1.88 1.37 1.5 0 2.99-.65v-2.71q-2.97.41-3.67.64-1.2.38-1.2 1.35"></path><rect width="7.26" height="9.63" x="-3.63" y="-4.82" fill="none" rx="0" ry="0" transform="translate(187.4 197.76)"></rect><path fill="#555555" d="M198.82 200.676q-.63.62-1.4.94-.77.31-1.32.35-.55.04-1.08.04-.54 0-1.16-.1v4.75l-1.24.1v-13.76q.42-.13 1.28-.4.87-.26 1.85-.26.98 0 1.69.16t1.32.61q1.42 1.11 1.42 3.65 0 2.55-1.36 3.92m-4.96-6.92v7.18q.57.14 1.21.14 1.86 0 2.87-1.11 1.01-1.1 1.01-3.09 0-2-1.03-2.85-.72-.59-1.85-.59-1.13 0-2.21.32"></path><rect width="7.56" height="14.42" x="-3.78" y="-7.21" fill="none" rx="0" ry="0" transform="translate(196.9 200.05)"></rect><path fill="#555555" d="M203.7 187.756v5.83q1.5-1.08 2.89-1.14 1.17 0 1.8.28.63.29 1.03.81t.4 1.47v7h-1.24v-6.67q0-.71-.3-1.09-.61-.7-1.86-.7-1.24.06-2.72.8v7.66h-1.24v-14.16z"></path><rect width="7.36" height="14.25" x="-3.68" y="-7.13" fill="none" rx="0" ry="0" transform="translate(206.64 195.38)"></rect><path fill="#555555" d="M212.86 197.326v.31q0 3.34 3.19 3.34 1.35 0 2.47-.36.28-.1.4-.15l.28 1q-.66.4-2.41.57-.49.04-1.05.04-1.59 0-2.66-.8-1.46-1.08-1.46-3.61 0-2.52 1.32-3.88 1.32-1.36 3.2-1.36 1.88 0 2.83 1.22.73.97.73 2.56 0 .38-.04.8h-6.78q-.02.15-.02.32m3.36-3.72q-1.18 0-2.01.71-.84.71-1.16 1.83h5.53q-.1-2.1-1.64-2.45-.34-.09-.72-.09"></path><rect width="8.08" height="9.65" x="-4.04" y="-4.83" fill="none" rx="0" ry="0" transform="translate(216.16 197.75)"></rect><path fill="#555555" d="m226.97 192.696-.49 1.14q-.3-.17-.65-.17-.34 0-.38.01-.72 0-1.45.53-.73.52-1.24 1.17v6.63h-1.24v-9.5l1.24-.1v2.13q.7-.89 1.19-1.25.91-.69 1.75-.73.11-.02.42-.02.3 0 .85.16"></path><rect width="5.45" height="9.6" x="-2.73" y="-4.8" fill="none" rx="0" ry="0" transform="translate(224.75 197.7)"></rect></svg></svg>